<svg width="62" height="18" viewBox="0 0 62 18" fill="none" xmlns="http://www.w3.org/2000/svg">
<path d="M8.99999 11.8125C10.5533 11.8125 11.8125 10.5533 11.8125 9C11.8125 7.4467 10.5533 6.1875 8.99999 6.1875C7.4467 6.1875 6.1875 7.4467 6.1875 9C6.1875 10.5533 7.4467 11.8125 8.99999 11.8125Z" fill="black"/>
<path d="M14.0674 15.6591C14.3067 15.8984 14.2827 16.2945 14.0015 16.4829C12.571 17.4411 10.8504 17.9999 8.99928 17.9999C7.14816 17.9999 5.42756 17.4411 3.99702 16.4829C3.71587 16.2945 3.69184 15.8984 3.93113 15.6591L5.98646 13.6037C6.17223 13.418 6.4604 13.3886 6.69422 13.5084C7.38558 13.8626 8.16909 14.0624 8.99928 14.0624C9.82946 14.0624 10.613 13.8626 11.3044 13.5084C11.5382 13.3886 11.8263 13.418 12.0121 13.6037L14.0674 15.6591Z" fill="black"/>
<path d="M14.0022 1.51706C14.2834 1.70539 14.3074 2.10155 14.0681 2.34084L12.0128 4.39619C11.827 4.58195 11.5388 4.61129 11.305 4.49151C10.6136 4.13733 9.83014 3.9375 8.99996 3.9375C6.20403 3.9375 3.93748 6.20406 3.93748 9C3.93748 9.83018 4.13731 10.6137 4.49149 11.3051C4.61127 11.5389 4.58193 11.827 4.39617 12.0128L2.34083 14.0682C2.10154 14.3074 1.70538 14.2834 1.51705 14.0023C0.558857 12.5717 0 10.8511 0 9C0 4.02944 4.02942 0 8.99996 0C10.8511 0 12.5717 0.55886 14.0022 1.51706Z" fill="black"/>
</svg>
